<svg width="40" height="40" viewBox="0 0 40 40" fill="none" xmlns="http://www.w3.org/2000/svg">
<circle cx="20" cy="20" r="20" fill="#FFE812"/>
<path d="M20 11.25C14.7072 11.25 10.4166 14.6769 10.4166 18.9042C10.4166 21.6372 12.2104 24.0353 14.9086 25.3894C14.7618 25.9022 13.9653 28.6885 13.9336 28.9074C13.9336 28.9074 13.9145 29.0719 14.0197 29.1346C14.1248 29.1974 14.2485 29.1486 14.2485 29.1486C14.55 29.106 17.7448 26.8327 18.2978 26.4379C18.8502 26.5172 19.4191 26.5583 20 26.5583C25.2927 26.5583 29.5833 23.1315 29.5833 18.9042C29.5833 14.6769 25.2927 11.25 20 11.25Z" fill="black"/>
<path d="M14.8014 21.6667C14.5079 21.6667 14.2692 21.4249 14.2692 21.1275V17.7726H13.4388C13.1509 17.7726 12.9166 17.5245 12.9166 17.2197C12.9166 16.9148 13.151 16.6667 13.4388 16.6667H16.1639C16.4518 16.6667 16.6861 16.9148 16.6861 17.2197C16.6861 17.5245 16.4517 17.7726 16.1639 17.7726H15.3335V21.1275C15.3335 21.4249 15.0948 21.6667 14.8014 21.6667ZM19.4677 21.6594C19.2458 21.6594 19.076 21.5638 19.0248 21.41L18.7613 20.6779L17.1386 20.6779L16.8749 21.4104C16.8239 21.5639 16.6542 21.6594 16.4323 21.6594C16.3156 21.6595 16.2002 21.633 16.094 21.5815C15.9474 21.5097 15.8063 21.3122 15.9679 20.7796L17.2408 17.2242C17.3305 16.9538 17.6029 16.6752 17.9495 16.6668C18.2971 16.6751 18.5695 16.9538 18.6593 17.2248L19.9317 20.7786C20.0937 21.3124 19.9526 21.5099 19.8059 21.5816C19.6997 21.633 19.5844 21.6595 19.4677 21.6594ZM18.4815 19.6777L17.9499 18.0753L17.4184 19.6777H18.4815ZM20.7881 21.5844C20.5069 21.5844 20.2781 21.3521 20.2781 21.0667V17.2315C20.2781 16.92 20.5219 16.6667 20.8214 16.6667C21.1209 16.6667 21.3646 16.92 21.3646 17.2315V20.5491H22.4955C22.7767 20.5491 23.0054 20.7814 23.0054 21.0667C23.0054 21.3521 22.7767 21.5844 22.4955 21.5844H20.7881ZM23.7446 21.6594C23.4511 21.6594 23.2125 21.4061 23.2125 21.0947V17.2315C23.2125 16.92 23.4511 16.6667 23.7446 16.6667C24.0381 16.6667 24.2768 16.92 24.2768 17.2315V18.4452L25.7615 16.8697C25.8379 16.7886 25.9428 16.744 26.0567 16.744C26.1895 16.744 26.3229 16.8048 26.4229 16.9108C26.5161 17.0096 26.5717 17.1368 26.5793 17.2688C26.587 17.402 26.5453 17.5241 26.4619 17.6126L25.2492 18.8993L26.5591 20.7408C26.6014 20.7999 26.6322 20.8673 26.6497 20.9391C26.6673 21.0109 26.6712 21.0857 26.6613 21.1592C26.6518 21.2327 26.6287 21.3034 26.5932 21.3673C26.5578 21.4313 26.5107 21.4871 26.4548 21.5316C26.3628 21.6058 26.2503 21.6459 26.1347 21.6456C26.0523 21.646 25.9709 21.6259 25.897 21.5869C25.8232 21.5479 25.759 21.4911 25.7096 21.4211L24.4616 19.6664L24.2769 19.8623V21.0944C24.2768 21.2442 24.2206 21.3878 24.1209 21.4937C24.0211 21.5996 23.8858 21.6592 23.7446 21.6594Z" fill="#FFE812"/>
</svg>
