<svg width="151" height="192" viewBox="0 0 151 192" fill="none" xmlns="http://www.w3.org/2000/svg">
<g clip-path="url(#clip0_66_1099)">
<path d="M21.9312 45.2406L85.1218 110.812C86.584 112.33 88.336 113.537 90.2739 114.364C92.2119 115.191 94.2962 115.619 96.4031 115.625H137.391C136.822 113.634 135.863 111.775 134.569 110.158C133.276 108.54 131.674 107.196 129.856 106.203L115.022 98.125C111.919 96.4301 109.274 94.0072 107.315 91.0646C105.355 88.1219 104.139 84.7475 103.772 81.2312C103.719 81.2312 103.672 81.2625 103.616 81.2625H91.125C90.2962 81.2625 89.5013 80.9333 88.9153 80.3472C88.3292 79.7612 88 78.9663 88 78.1375C88 77.3087 88.3292 76.5138 88.9153 75.9278C89.5013 75.3417 90.2962 75.0125 91.125 75.0125H103.625V68.75H91.125C90.2962 68.75 89.5013 68.4208 88.9153 67.8347C88.3292 67.2487 88 66.4538 88 65.625C88 64.7962 88.3292 64.0013 88.9153 63.4153C89.5013 62.8292 90.2962 62.5 91.125 62.5H103.625V56.25H91.125C90.2962 56.25 89.5013 55.9208 88.9153 55.3347C88.3292 54.7487 88 53.9538 88 53.125C88 52.2962 88.3292 51.5013 88.9153 50.9153C89.5013 50.3292 90.2962 50 91.125 50H103.625V43.75C103.625 41.2636 102.637 38.879 100.879 37.1209C99.1209 35.3627 96.7364 34.375 94.25 34.375H75.5C73.0136 34.375 70.629 33.3873 68.8708 31.6291C67.1127 29.871 66.125 27.4864 66.125 25V21.875C66.125 19.3886 65.1373 17.004 63.3791 15.2459C61.6209 13.4877 59.2364 12.5 56.75 12.5H56.3406C55.0555 12.5021 53.7844 12.7674 52.6057 13.2796C51.4271 13.7918 50.3659 14.54 49.4875 15.4781L21.8187 45.1219L21.9312 45.2406Z" fill="url(#paint0_linear_66_1099)"/>
<path d="M80.6188 115.144L17.7219 49.875C14.8462 54.017 13.4898 59.0253 13.8821 64.0525C14.2745 69.0796 16.3915 73.8168 19.8751 77.4625L65.3032 124.963C69.1017 128.917 73.6581 132.065 78.7003 134.219C83.7425 136.373 89.167 137.489 94.6501 137.5H122.375C126.518 137.495 130.489 135.847 133.418 132.918C136.347 129.989 137.995 126.017 138 121.875H96.4032C93.4553 121.869 90.5388 121.269 87.8271 120.113C85.1155 118.957 82.6641 117.267 80.6188 115.144Z" fill="url(#paint1_linear_66_1099)"/>
<path d="M56.75 134.375H16.125C15.2962 134.375 14.5013 134.046 13.9153 133.46C13.3292 132.874 13 132.079 13 131.25C13 130.421 13.3292 129.626 13.9153 129.04C14.5013 128.454 15.2962 128.125 16.125 128.125H56.75C57.5788 128.125 58.3737 128.454 58.9597 129.04C59.5458 129.626 59.875 130.421 59.875 131.25C59.875 132.079 59.5458 132.874 58.9597 133.46C58.3737 134.046 57.5788 134.375 56.75 134.375Z" fill="#4C6EF5"/>
<path d="M41.125 118.75H16.125C15.2962 118.75 14.5013 118.421 13.9153 117.835C13.3292 117.249 13 116.454 13 115.625C13 114.796 13.3292 114.001 13.9153 113.415C14.5013 112.829 15.2962 112.5 16.125 112.5H41.125C41.9538 112.5 42.7487 112.829 43.3347 113.415C43.9208 114.001 44.25 114.796 44.25 115.625C44.25 116.454 43.9208 117.249 43.3347 117.835C42.7487 118.421 41.9538 118.75 41.125 118.75Z" fill="#4C6EF5"/>
<path d="M25.5 103.125H16.125C15.2962 103.125 14.5013 102.796 13.9153 102.21C13.3292 101.624 13 100.829 13 100C13 99.1712 13.3292 98.3763 13.9153 97.7903C14.5013 97.2042 15.2962 96.875 16.125 96.875H25.5C26.3288 96.875 27.1237 97.2042 27.7097 97.7903C28.2958 98.3763 28.625 99.1712 28.625 100C28.625 100.829 28.2958 101.624 27.7097 102.21C27.1237 102.796 26.3288 103.125 25.5 103.125Z" fill="#4C6EF5"/>
<path d="M38.7265 164.752C38.7265 164.304 38.5025 163.952 38.1185 163.664C37.2545 163.088 35.4625 162.864 32.4545 162.864C29.4465 162.864 27.6545 163.088 26.8225 163.664C26.4065 163.952 26.1825 164.304 26.1825 164.752C26.1825 165.2 26.4065 165.584 26.8225 165.872C27.6545 166.448 29.4465 166.64 32.4545 166.64C35.4625 166.64 37.2545 166.448 38.1185 165.872C38.5025 165.584 38.7265 165.2 38.7265 164.752ZM20.0065 164.752C20.0065 162.768 20.8065 161.328 22.3105 160.272C24.4545 158.832 27.9105 158.192 32.4545 158.192C36.9985 158.192 40.4545 158.832 42.5985 160.272C44.1025 161.328 44.9345 162.768 44.9345 164.752C44.9345 166.736 44.1025 168.176 42.5985 169.232C40.4545 170.672 36.9985 171.344 32.4545 171.344C27.9105 171.344 24.4545 170.672 22.3105 169.232C20.8065 168.176 20.0065 166.736 20.0065 164.752ZM36.2305 177.424V182.16H29.9585V177.424H18.6945V172.56H46.1825V177.424H36.2305ZM26.8225 183.824H44.8705V188.752H20.4865V179.152H26.8225V183.824ZM55.4453 163.216V165.264H73.3013V169.904H64.2453V171.44H74.9013V176.304H47.4133V171.44H58.0053V169.904H49.2053V158.544H73.1413V163.216H55.4453ZM67.4453 183.216C67.4453 182.928 67.3493 182.736 67.0613 182.576C66.3253 182.064 64.4693 181.808 61.1733 181.808C57.8773 181.808 56.0533 182.064 55.2853 182.576C54.9973 182.736 54.9013 182.928 54.9013 183.216C54.9013 183.504 54.9973 183.696 55.2853 183.856C56.0533 184.368 57.8773 184.624 61.1733 184.624C64.4693 184.624 66.3253 184.368 67.0613 183.856C67.3493 183.696 67.4453 183.504 67.4453 183.216ZM48.7253 183.216C48.7253 181.584 49.4613 180.272 50.8373 179.312C52.9173 177.84 56.5333 177.168 61.1733 177.168C65.8453 177.168 69.4293 177.84 71.5093 179.312C72.8853 180.272 73.6533 181.584 73.6533 183.216C73.6533 184.848 72.8853 186.16 71.5093 187.12C69.4293 188.592 65.8453 189.264 61.1733 189.264C56.5333 189.264 52.9173 188.592 50.8373 187.12C49.4613 186.16 48.7253 184.848 48.7253 183.216ZM95.62 174.224C93.348 174.768 90.724 174.864 87.716 174.864H77.7V169.776H87.748C90.756 169.776 93.38 169.712 95.716 169.264V163.856H77.7V158.704H102.052V170.384C102.052 173.744 101.796 177.488 101.188 180.112H94.884C95.268 178.384 95.492 176.304 95.62 174.224ZM76.292 182.16H103.46V187.408H76.292V182.16ZM112.755 171.12H130.931V175.984H106.419V164.88H124.435V163.408H106.419V158.544H130.771V169.648H112.755V171.12ZM105.011 177.616H132.179V182.768H121.715V189.104H115.379V182.768H105.011V177.616Z" fill="#4C6EF5"/>
</g>
<defs>
<linearGradient id="paint0_linear_66_1099" x1="79.6047" y1="12.5" x2="79.6047" y2="115.625" gradientUnits="userSpaceOnUse">
<stop stop-color="#4C6EF5"/>
<stop offset="1" stop-color="#364FC7"/>
</linearGradient>
<linearGradient id="paint1_linear_66_1099" x1="75.9079" y1="49.875" x2="75.9079" y2="137.5" gradientUnits="userSpaceOnUse">
<stop stop-color="#4C6EF5"/>
<stop offset="1" stop-color="#364FC7"/>
</linearGradient>
<clipPath id="clip0_66_1099">
<rect width="150" height="192" fill="white" transform="translate(0.5)"/>
</clipPath>
</defs>
</svg>
