<svg width="28" height="28" viewBox="0 0 28 28" fill="none" xmlns="http://www.w3.org/2000/svg">
<path fill-rule="evenodd" clip-rule="evenodd" d="M17.3774 10.2009C17.3393 12.1065 15.7834 13.6312 13.8774 13.6309C11.9942 13.5998 10.4732 12.084 10.4358 10.2009V8.88252C10.4356 8.10597 10.7487 7.36219 11.3044 6.81972C11.8601 6.27724 12.6111 5.98199 13.3874 6.00085H14.4841C15.2504 5.99775 15.9864 6.29998 16.5293 6.84074C17.0723 7.38149 17.3775 8.11623 17.3774 8.88252V10.2009ZM13.3524 7.71585C12.7081 7.71585 12.1858 8.23819 12.1858 8.88252L12.2324 10.2009C12.2324 11.1351 12.9898 11.8925 13.9241 11.8925C14.8584 11.8925 15.6158 11.1351 15.6158 10.2009V8.88252C15.6158 8.23819 15.0934 7.71585 14.4491 7.71585H13.3524Z" fill="#3F4047"/>
<path fill-rule="evenodd" clip-rule="evenodd" d="M26.1041 17.8309L26.2325 19.6509C26.3673 20.2205 26.2356 20.8205 25.8747 21.2813C25.5138 21.7421 24.9628 22.0136 24.3775 22.0192H19.1391C18.6821 22.5063 18.0453 22.7846 17.3775 22.7892H10.3775C9.6758 22.7986 9.0041 22.5053 8.53412 21.9842C8.42556 21.9962 8.31601 21.9962 8.20745 21.9842H2.85245C2.28309 21.9627 1.75249 21.6901 1.40347 21.2398C1.05444 20.7894 0.922854 20.2076 1.04412 19.6509L1.21912 17.8309C1.38936 16.9624 2.14266 16.3306 3.02745 16.3142H8.04412C8.25352 16.3026 8.46325 16.3303 8.66245 16.3959C9.11005 15.8367 9.78962 15.5142 10.5058 15.5209H17.2491C17.9234 15.5183 18.5658 15.8076 19.0108 16.3142C19.092 16.3027 19.1745 16.3027 19.2558 16.3142H24.2958C25.1806 16.3306 25.9339 16.9624 26.1041 17.8309ZM19.1858 20.2342H24.4708C24.5065 20.1654 24.5107 20.0846 24.4825 20.0125V19.7792L24.3658 18.1225L24.2958 18.0292H19.0108C18.5176 18.031 18.0468 17.8232 17.7158 17.4575C17.6 17.3191 17.4296 17.2381 17.2491 17.2359H10.5058C10.3103 17.2384 10.1263 17.3282 10.0041 17.4809C9.67108 17.8762 9.17937 18.1028 8.66246 18.0992C8.45079 18.1002 8.24089 18.0606 8.04412 17.9825H3.08579C3.01579 17.9825 3.01579 18.0059 3.01579 18.0759L2.89912 19.7325V19.9659C2.86718 20.0363 2.86718 20.1171 2.89912 20.1875H8.25412C8.37831 20.1761 8.50327 20.1761 8.62746 20.1875C9.10158 20.1963 9.55025 20.4037 9.86412 20.7592C9.99285 20.9098 10.1794 20.9989 10.3775 21.0042H17.4241C17.6226 21.0003 17.8097 20.911 17.9375 20.7592C18.2655 20.4226 18.7158 20.2332 19.1858 20.2342Z" fill="#3F4047"/>
<path fill-rule="evenodd" clip-rule="evenodd" d="M24.3425 11.9509C24.3425 13.3684 23.1933 14.5175 21.7758 14.5175C21.093 14.5206 20.4372 14.2516 19.9533 13.7699C19.4695 13.2882 19.1974 12.6336 19.1975 11.9509V10.9709C19.1975 10.3984 19.4248 9.84944 19.8296 9.44468C20.2344 9.03991 20.7834 8.81252 21.3558 8.81252H22.1841C23.3761 8.81252 24.3425 9.77884 24.3425 10.9709V11.9509ZM21.0671 10.7288C20.9905 10.8054 20.9475 10.9092 20.9475 11.0175V11.9975C20.9972 12.4141 21.3504 12.7277 21.77 12.7277C22.1895 12.7277 22.5428 12.4141 22.5925 11.9975V11.0175C22.5925 10.792 22.4096 10.6092 22.1841 10.6092H21.3558C21.2475 10.6092 21.1436 10.6522 21.0671 10.7288Z" fill="#3F4047"/>
<path fill-rule="evenodd" clip-rule="evenodd" d="M7.36991 13.7699C6.88604 14.2516 6.2302 14.5206 5.54745 14.5175C4.86673 14.5175 4.21389 14.2471 3.73255 13.7658C3.2512 13.2844 2.98079 12.6316 2.98079 11.9509V10.9709C2.98079 9.77884 3.94711 8.81252 5.13912 8.81252H5.96745C7.15947 8.81252 8.12579 9.77884 8.12579 10.9709V11.9509C8.12579 12.6336 7.85378 13.2882 7.36991 13.7699ZM5.13912 10.6092C4.91361 10.6092 4.73079 10.792 4.73079 11.0175V11.9975C4.78049 12.4141 5.13377 12.7277 5.55329 12.7277C5.97281 12.7277 6.32609 12.4141 6.37579 11.9975V11.0175C6.37579 10.792 6.19297 10.6092 5.96746 10.6092H5.13912Z" fill="#3F4047"/>
</svg>
