<svg width="28" height="28" viewBox="0 0 28 28" fill="none" xmlns="http://www.w3.org/2000/svg">
<path fill-rule="evenodd" clip-rule="evenodd" d="M23.6716 8.16722L17.1849 3.37222C15.2875 1.98703 12.7123 1.98703 10.8149 3.37222L4.33992 8.16722C3.08627 9.07038 2.34037 10.5188 2.33325 12.0639V20.7322C2.40328 23.5244 4.72101 25.7325 7.51325 25.6672H20.4866C23.2788 25.7325 25.5966 23.5244 25.6666 20.7322V12.0522C25.6566 10.5138 24.916 9.07172 23.6716 8.16722ZM23.9166 20.7322C23.847 22.558 22.3125 23.9829 20.4866 23.9172H7.51325C5.68972 23.9764 4.15911 22.5551 4.08325 20.7322V12.0639C4.08948 11.0721 4.57112 10.1436 5.37825 9.56722L11.8533 4.78389C13.132 3.85006 14.8678 3.85006 16.1466 4.78389L22.6216 9.57889C23.428 10.1452 23.9106 11.0668 23.9166 12.0522V20.7322ZM8.74992 18.3756H19.2499C19.7332 18.3756 20.1249 18.7673 20.1249 19.2506C20.1249 19.7338 19.7332 20.1256 19.2499 20.1256H8.74992C8.26667 20.1256 7.87492 19.7338 7.87492 19.2506C7.87492 18.7673 8.26667 18.3756 8.74992 18.3756Z" fill="#3F4047"/>
</svg>
