<svg width="28" height="28" viewBox="0 0 28 28" fill="none" xmlns="http://www.w3.org/2000/svg">
<path fill-rule="evenodd" clip-rule="evenodd" d="M17.1806 3.37451L23.6648 8.16398C24.9145 9.06837 25.658 10.5144 25.6666 12.057V20.7271C25.5863 23.5073 23.277 25.7013 20.4964 25.6394H7.51571C4.73036 25.7082 2.41355 23.5122 2.33325 20.7271V12.057C2.3418 10.5144 3.08535 9.06837 4.33501 8.16398L10.8192 3.37451C12.7125 1.98627 15.2874 1.98627 17.1806 3.37451ZM8.47367 20.4447H19.5263C20.035 20.4447 20.4474 20.0323 20.4474 19.5236C20.4474 19.015 20.035 18.6026 19.5263 18.6026H8.47367C7.96499 18.6026 7.55262 19.015 7.55262 19.5236C7.55262 20.0323 7.96499 20.4447 8.47367 20.4447Z" fill="#3F4047"/>
</svg>
