<svg width="97" height="28" viewBox="0 0 97 28" fill="none" xmlns="http://www.w3.org/2000/svg">
<g clip-path="url(#clip0_154_2805)">
<path d="M4.00049 8.44484L15.7961 20.6849C16.069 20.9681 16.396 21.1935 16.7578 21.3479C17.1195 21.5022 17.5086 21.5822 17.9019 21.5833H25.5529C25.4467 21.2115 25.2677 20.8646 25.0263 20.5627C24.7848 20.2607 24.4858 20.0098 24.1465 19.8245L21.3774 18.3166C20.7982 18.0002 20.3046 17.5479 19.9388 16.9986C19.573 16.4493 19.346 15.8195 19.2774 15.1631C19.2675 15.1631 19.2587 15.1689 19.2482 15.1689H16.9167C16.7619 15.1689 16.6136 15.1075 16.5042 14.9981C16.3948 14.8887 16.3333 14.7403 16.3333 14.5856C16.3333 14.4309 16.3948 14.2825 16.5042 14.1731C16.6136 14.0637 16.7619 14.0023 16.9167 14.0023H19.25V12.8333H16.9167C16.7619 12.8333 16.6136 12.7718 16.5042 12.6624C16.3948 12.553 16.3333 12.4046 16.3333 12.2499C16.3333 12.0952 16.3948 11.9468 16.5042 11.8374C16.6136 11.728 16.7619 11.6666 16.9167 11.6666H19.25V10.4999H16.9167C16.7619 10.4999 16.6136 10.4385 16.5042 10.3291C16.3948 10.2197 16.3333 10.0713 16.3333 9.91658C16.3333 9.76188 16.3948 9.6135 16.5042 9.50411C16.6136 9.39471 16.7619 9.33325 16.9167 9.33325H19.25V8.16658C19.25 7.70246 19.0656 7.25734 18.7374 6.92915C18.4092 6.60096 17.9641 6.41658 17.5 6.41658H14C13.5359 6.41658 13.0907 6.23221 12.7626 5.90402C12.4344 5.57583 12.25 5.13071 12.25 4.66659V4.08325C12.25 3.61912 12.0656 3.174 11.7374 2.84582C11.4092 2.51763 10.9641 2.33325 10.5 2.33325H10.4236C10.1837 2.33364 9.94641 2.38317 9.7264 2.47878C9.50639 2.57439 9.30829 2.71406 9.14433 2.88917L3.97949 8.42267L4.00049 8.44484Z" fill="url(#paint0_linear_154_2805)"/>
<path d="M14.9555 21.4933L3.21474 9.30981C2.67794 10.083 2.42474 11.0179 2.49798 11.9563C2.57122 12.8947 2.9664 13.779 3.61666 14.4595L12.0966 23.3261C12.8056 24.0642 13.6562 24.6519 14.5974 25.054C15.5386 25.4561 16.5512 25.6644 17.5747 25.6665H22.75C23.5233 25.6656 24.2646 25.358 24.8114 24.8112C25.3581 24.2644 25.6657 23.5231 25.6667 22.7498H17.9019C17.3516 22.7486 16.8072 22.6368 16.301 22.4209C15.7949 22.2051 15.3373 21.8896 14.9555 21.4933Z" fill="url(#paint1_linear_154_2805)"/>
<path d="M10.5 25.0832H2.91671C2.762 25.0832 2.61362 25.0217 2.50423 24.9123C2.39483 24.8029 2.33337 24.6545 2.33337 24.4998C2.33337 24.3451 2.39483 24.1968 2.50423 24.0874C2.61362 23.978 2.762 23.9165 2.91671 23.9165H10.5C10.6548 23.9165 10.8031 23.978 10.9125 24.0874C11.0219 24.1968 11.0834 24.3451 11.0834 24.4998C11.0834 24.6545 11.0219 24.8029 10.9125 24.9123C10.8031 25.0217 10.6548 25.0832 10.5 25.0832Z" fill="#4C6EF5"/>
<path d="M7.58337 22.1667H2.91671C2.762 22.1667 2.61362 22.1052 2.50423 21.9958C2.39483 21.8864 2.33337 21.738 2.33337 21.5833C2.33337 21.4286 2.39483 21.2803 2.50423 21.1709C2.61362 21.0615 2.762 21 2.91671 21H7.58337C7.73808 21 7.88646 21.0615 7.99585 21.1709C8.10525 21.2803 8.16671 21.4286 8.16671 21.5833C8.16671 21.738 8.10525 21.8864 7.99585 21.9958C7.88646 22.1052 7.73808 22.1667 7.58337 22.1667Z" fill="#4C6EF5"/>
<path d="M4.66671 19.2499H2.91671C2.762 19.2499 2.61362 19.1885 2.50423 19.0791C2.39483 18.9697 2.33337 18.8213 2.33337 18.6666C2.33337 18.5119 2.39483 18.3635 2.50423 18.2541C2.61362 18.1447 2.762 18.0833 2.91671 18.0833H4.66671C4.82142 18.0833 4.96979 18.1447 5.07919 18.2541C5.18858 18.3635 5.25004 18.5119 5.25004 18.6666C5.25004 18.8213 5.18858 18.9697 5.07919 19.0791C4.96979 19.1885 4.82142 19.2499 4.66671 19.2499Z" fill="#4C6EF5"/>
<path d="M45.186 9.048C45.186 8.796 45.06 8.598 44.844 8.436C44.358 8.112 43.35 7.986 41.658 7.986C39.966 7.986 38.958 8.112 38.49 8.436C38.256 8.598 38.13 8.796 38.13 9.048C38.13 9.3 38.256 9.516 38.49 9.678C38.958 10.002 39.966 10.11 41.658 10.11C43.35 10.11 44.358 10.002 44.844 9.678C45.06 9.516 45.186 9.3 45.186 9.048ZM34.656 9.048C34.656 7.932 35.106 7.122 35.952 6.528C37.158 5.718 39.102 5.358 41.658 5.358C44.214 5.358 46.158 5.718 47.364 6.528C48.21 7.122 48.678 7.932 48.678 9.048C48.678 10.164 48.21 10.974 47.364 11.568C46.158 12.378 44.214 12.756 41.658 12.756C39.102 12.756 37.158 12.378 35.952 11.568C35.106 10.974 34.656 10.164 34.656 9.048ZM43.782 16.176V18.84H40.254V16.176H33.918V13.44H49.38V16.176H43.782ZM38.49 19.776H48.642V22.548H34.926V17.148H38.49V19.776ZM53.7153 8.184V9.336H63.7593V11.946H58.6653V12.81H64.6593V15.546H49.1973V12.81H55.1553V11.946H50.2053V5.556H63.6693V8.184H53.7153ZM60.4653 19.434C60.4653 19.272 60.4113 19.164 60.2493 19.074C59.8353 18.786 58.7913 18.642 56.9373 18.642C55.0833 18.642 54.0573 18.786 53.6253 19.074C53.4633 19.164 53.4093 19.272 53.4093 19.434C53.4093 19.596 53.4633 19.704 53.6253 19.794C54.0573 20.082 55.0833 20.226 56.9373 20.226C58.7913 20.226 59.8353 20.082 60.2493 19.794C60.4113 19.704 60.4653 19.596 60.4653 19.434ZM49.9353 19.434C49.9353 18.516 50.3493 17.778 51.1233 17.238C52.2933 16.41 54.3273 16.032 56.9373 16.032C59.5653 16.032 61.5813 16.41 62.7513 17.238C63.5253 17.778 63.9573 18.516 63.9573 19.434C63.9573 20.352 63.5253 21.09 62.7513 21.63C61.5813 22.458 59.5653 22.836 56.9373 22.836C54.3273 22.836 52.2933 22.458 51.1233 21.63C50.3493 21.09 49.9353 20.352 49.9353 19.434ZM75.4386 14.376C74.1606 14.682 72.6846 14.736 70.9926 14.736H65.3586V11.874H71.0106C72.7026 11.874 74.1786 11.838 75.4926 11.586V8.544H65.3586V5.646H79.0566V12.216C79.0566 14.106 78.9126 16.212 78.5706 17.688H75.0246C75.2406 16.716 75.3666 15.546 75.4386 14.376ZM64.5666 18.84H79.8486V21.792H64.5666V18.84ZM84.2019 12.63H94.4259V15.366H80.6379V9.12H90.7719V8.292H80.6379V5.556H94.3359V11.802H84.2019V12.63ZM79.8459 16.284H95.1279V19.182H89.2419V22.746H85.6779V19.182H79.8459V16.284Z" fill="#4C6EF5"/>
</g>
<defs>
<linearGradient id="paint0_linear_154_2805" x1="14.7662" y1="2.33325" x2="14.7662" y2="21.5833" gradientUnits="userSpaceOnUse">
<stop stop-color="#4C6EF5"/>
<stop offset="1" stop-color="#364FC7"/>
</linearGradient>
<linearGradient id="paint1_linear_154_2805" x1="14.0761" y1="9.30981" x2="14.0761" y2="25.6665" gradientUnits="userSpaceOnUse">
<stop stop-color="#4C6EF5"/>
<stop offset="1" stop-color="#364FC7"/>
</linearGradient>
<clipPath id="clip0_154_2805">
<rect width="97" height="28" fill="white"/>
</clipPath>
</defs>
</svg>
