<svg width="28" height="28" viewBox="0 0 28 28" fill="none" xmlns="http://www.w3.org/2000/svg">
<path fill-rule="evenodd" clip-rule="evenodd" d="M6.7777 2.33333H21.2221C23.6767 2.33333 25.6666 4.32317 25.6666 6.77777V21.2222C25.6666 23.6768 23.6767 25.6667 21.2221 25.6667H6.7777C4.3231 25.6667 2.33325 23.6768 2.33325 21.2222V6.77777C2.33325 4.32317 4.3231 2.33333 6.7777 2.33333ZM20.111 15.3889C20.5713 15.3889 20.9444 15.0158 20.9444 14.5555V11.1778C20.9384 10.72 20.5688 10.3504 20.111 10.3444H16.7777C16.3175 10.3444 15.9444 10.7175 15.9444 11.1778C15.9444 11.638 16.3175 12.0111 16.7777 12.0111H17.7666L13.811 15.9667L11.5888 13.7444C10.9991 13.1568 10.0452 13.1568 9.45547 13.7444L6.59992 16.6C6.27497 16.9253 6.27497 17.4524 6.59992 17.7778C6.75534 17.9351 6.96762 18.0233 7.18881 18.0222C7.41024 18.0245 7.623 17.9362 7.7777 17.7778L10.5666 15.1111L12.7888 17.3333C13.3785 17.921 14.3324 17.921 14.9221 17.3333L19.2777 12.9444V14.5555C19.2777 15.0158 19.6508 15.3889 20.111 15.3889Z" fill="#3F4047"/>
</svg>
