<svg width="28" height="28" viewBox="0 0 28 28" fill="none" xmlns="http://www.w3.org/2000/svg">
<path d="M14.1982 13.642C16.1086 13.6423 17.6663 12.1106 17.6982 10.2004V8.89371C17.6983 8.1182 17.387 7.3751 16.8343 6.83114C16.2816 6.28717 15.5336 5.98787 14.7582 6.00038H13.6498C12.0564 6.0068 10.7682 7.30031 10.7682 8.89371V10.2004C10.7992 12.0836 12.315 13.6046 14.1982 13.642Z" fill="#3F4047"/>
<path d="M26.5648 19.662L26.4248 17.9004C26.2735 17.0157 25.5139 16.3639 24.6165 16.3487H19.5765C19.4992 16.3367 19.4205 16.3367 19.3432 16.3487C18.896 15.8465 18.2539 15.5616 17.5815 15.567H10.8265C10.1144 15.5639 9.43988 15.8862 8.99483 16.442C8.80421 16.3723 8.60279 16.3368 8.39983 16.337H3.35983C2.45868 16.3533 1.69781 17.011 1.5515 17.9004L1.4115 19.7204C1.29426 20.2785 1.42898 20.8599 1.77973 21.3096C2.13049 21.7593 2.66162 22.0315 3.2315 22.0537H8.53983C8.64448 22.0658 8.75018 22.0658 8.85483 22.0537C9.31756 22.5644 9.97399 22.8567 10.6632 22.8587H17.7448C18.413 22.8555 19.0503 22.577 19.5065 22.0887H24.7448C25.3354 22.0724 25.8862 21.7874 26.2407 21.3148C26.5952 20.8421 26.7145 20.2336 26.5648 19.662Z" fill="#3F4047"/>
<path d="M22.1548 14.5287C23.5724 14.5287 24.7215 13.3796 24.7215 11.962V10.9704C24.7217 10.3877 24.4863 9.82969 24.0689 9.42321C23.6514 9.01672 23.0873 8.7963 22.5048 8.81204H21.6882C20.4961 8.81204 19.5298 9.77836 19.5298 10.9704V11.962C19.5297 12.653 19.8081 13.3148 20.3021 13.7979C20.7961 14.2809 21.4641 14.5444 22.1548 14.5287Z" fill="#3F4047"/>
<path d="M5.87983 14.5287C7.29736 14.5287 8.4465 13.3796 8.4465 11.962V10.9704C8.4465 9.77836 7.48018 8.81204 6.28817 8.81204H5.4715C4.27948 8.81204 3.31317 9.77836 3.31317 10.9704V11.962C3.31317 13.3796 4.4623 14.5287 5.87983 14.5287Z" fill="#3F4047"/>
</svg>
