<svg width="28" height="28" viewBox="0 0 28 28" fill="none" xmlns="http://www.w3.org/2000/svg">
<path fill-rule="evenodd" clip-rule="evenodd" d="M5.875 6.5H15.375C15.6511 6.5 15.875 6.72386 15.875 7V9.875C15.875 10.2892 16.2108 10.625 16.625 10.625V10.625C17.0392 10.625 17.375 10.2892 17.375 9.875V7C17.375 5.89543 16.4796 5 15.375 5H5.875C4.77043 5 3.875 5.89543 3.875 7V21C3.875 22.1046 4.77043 23 5.875 23H15.375C16.4796 23 17.375 22.1046 17.375 21V18.125C17.375 17.7108 17.0392 17.375 16.625 17.375V17.375C16.2108 17.375 15.875 17.7108 15.875 18.125V21C15.875 21.2761 15.6511 21.5 15.375 21.5H5.875C5.59886 21.5 5.375 21.2761 5.375 21V7C5.375 6.72386 5.59886 6.5 5.875 6.5Z" fill="#3F4047"/>
<path d="M24.125 14L12.875 14" stroke="#3F4047" stroke-width="1.5" stroke-linecap="round" stroke-linejoin="round"/>
<path d="M24.125 14L19.625 18.5" stroke="#3F4047" stroke-width="1.5" stroke-linecap="round" stroke-linejoin="round"/>
<path d="M24.125 14L19.625 9.5" stroke="#3F4047" stroke-width="1.5" stroke-linecap="round" stroke-linejoin="round"/>
</svg>
