<svg width="28" height="28" viewBox="0 0 28 28" fill="none" xmlns="http://www.w3.org/2000/svg">
<path fill-rule="evenodd" clip-rule="evenodd" d="M19.7166 4.16501H19.8333C23.0549 4.16501 25.6666 6.77668 25.6666 9.99834V20.4983C25.6666 23.72 23.0549 26.3317 19.8333 26.3317H8.16658C6.61949 26.3317 5.13576 25.7171 4.0418 24.6231C2.94783 23.5292 2.33325 22.0454 2.33325 20.4983V9.99834C2.33325 6.77668 4.94492 4.16501 8.16658 4.16501H8.28325V2.04167C8.28325 1.55842 8.675 1.16667 9.15825 1.16667C9.6415 1.16667 10.0333 1.55842 10.0333 2.04167V4.16501H17.9666V2.04167C17.9666 1.55842 18.3583 1.16667 18.8416 1.16667C19.3248 1.16667 19.7166 1.55842 19.7166 2.04167V4.16501ZM8.74992 11.27H19.2499C19.7332 11.27 20.1249 10.8783 20.1249 10.395C20.1249 9.91176 19.7332 9.52001 19.2499 9.52001H8.74992C8.26667 9.52001 7.87492 9.91176 7.87492 10.395C7.87492 10.8783 8.26667 11.27 8.74992 11.27Z" fill="#3F4047"/>
</svg>
