<svg width="28" height="28" viewBox="0 0 28 28" fill="none" xmlns="http://www.w3.org/2000/svg">
<path d="M19.2499 9.52001H8.74992C8.26667 9.52001 7.87492 9.91176 7.87492 10.395C7.87492 10.8783 8.26667 11.27 8.74992 11.27H19.2499C19.7332 11.27 20.1249 10.8783 20.1249 10.395C20.1249 9.91176 19.7332 9.52001 19.2499 9.52001Z" fill="#3F4047"/>
<path fill-rule="evenodd" clip-rule="evenodd" d="M19.7049 4.16501H19.8333C23.0549 4.16501 25.6666 6.77668 25.6666 9.99834V20.4983C25.6666 23.72 23.0549 26.3317 19.8333 26.3317H8.16658C6.61949 26.3317 5.13576 25.7171 4.0418 24.6231C2.94783 23.5292 2.33325 22.0454 2.33325 20.4983V9.99834C2.33325 6.77668 4.94492 4.16501 8.16658 4.16501H8.27159V2.04167C8.27159 1.55842 8.66334 1.16667 9.14659 1.16667C9.62983 1.16667 10.0216 1.55842 10.0216 2.04167V4.16501H17.9549V2.04167C17.9549 1.55842 18.3467 1.16667 18.8299 1.16667C19.3132 1.16667 19.7049 1.55842 19.7049 2.04167V4.16501ZM19.8333 24.5817C22.0884 24.5817 23.9166 22.7535 23.9166 20.4983V9.99834C23.9166 7.74318 22.0884 5.91501 19.8333 5.91501H8.16658C5.91142 5.91501 4.08325 7.74318 4.08325 9.99834V20.4983C4.08325 22.7535 5.91142 24.5817 8.16658 24.5817H19.8333Z" fill="#3F4047"/>
</svg>
