<svg width="28" height="28" viewBox="0 0 28 28" fill="none" xmlns="http://www.w3.org/2000/svg">
<path fill-rule="evenodd" clip-rule="evenodd" d="M6.7777 2.33333H21.2221C23.6767 2.33333 25.6666 4.32317 25.6666 6.77777V21.2222C25.6666 23.6768 23.6767 25.6667 21.2221 25.6667H6.7777C4.3231 25.6667 2.33325 23.6768 2.33325 21.2222V6.77777C2.33325 4.32317 4.3231 2.33333 6.7777 2.33333ZM21.2221 24C22.7563 24 23.9999 22.7563 23.9999 21.2222V6.77777C23.9999 5.24365 22.7563 3.99999 21.2221 3.99999H6.7777C5.24357 3.99999 3.99992 5.24365 3.99992 6.77777V21.2222C3.99992 22.7563 5.24357 24 6.7777 24H21.2221Z" fill="#3F4047"/>
<path d="M20.111 10.3889H16.7777C16.3175 10.3889 15.9444 10.762 15.9444 11.2222C15.9444 11.6825 16.3175 12.0556 16.7777 12.0556H17.811L13.8555 16.0111L11.6333 13.7889C11.0436 13.2012 10.0896 13.2012 9.49992 13.7889L6.59992 16.6C6.27497 16.9253 6.27497 17.4524 6.59992 17.7778C6.75535 17.9351 6.96762 18.0233 7.18881 18.0222C7.41024 18.0245 7.623 17.9362 7.7777 17.7778L10.5221 15.0333L12.7444 17.2555C13.3379 17.8445 14.2953 17.8445 14.8888 17.2555L19.2333 12.9111V14.5556C19.2333 15.0158 19.6063 15.3889 20.0666 15.3889C20.5268 15.3889 20.8999 15.0158 20.8999 14.5556V11.2222C20.8951 10.781 20.5513 10.4179 20.111 10.3889Z" fill="#3F4047"/>
</svg>
